HIERARCHY
ROOT Hips
{
	OFFSET -15.124452 -3.255015 -7.033925
	CHANNELS 6 Xposition Yposition Zposition Zrotation Yrotation Xrotation
	JOINT LHipJoint
	{
		OFFSET 3.743161 12.115931 7.258369
		CHANNELS 3 Zrotation Yrotation Xrotation
		JOINT LeftUpLeg
		{
			OFFSET 11.382020 15.456393 5.536875
			CHANNELS 3 Zrotation Yrotation Xrotation
			JOINT LeftLeg
			{
				OFFSET 20.318003 22.601196 21.174555
				CHANNELS 3 Zrotation Yrotation Xrotation
				JOINT LeftFoot
				{
					OFFSET 13.473058 9.120536 19.656052
					CHANNELS 3 Zrotation Yrotation Xrotation
					JOINT LeftToeBase
					{
						OFFSET 21.150522 8.835663 9.673202
						CHANNELS 3 Zrotation Yrotation Xrotation
						End Site
						{
							OFFSET 0.000000 0.000000 0.000000
						}
					}
				}
			}
		}
	}
	JOINT RHipJoint
	{
		OFFSET 12.033111 15.585716 6.906061
		CHANNELS 3 Zrotation Yrotation Xrotation
		JOINT RightUpLeg
		{
			OFFSET 17.184156 14.929330 11.226574
			CHANNELS 3 Zrotation Yrotation Xrotation
			JOINT RightLeg
			{
				OFFSET 6.399166 16.881590 27.357933
				CHANNELS 3 Zrotation Yrotation Xrotation
				JOINT RightFoot
				{
					OFFSET 16.275938 9.895314 17.368757
					CHANNELS 3 Zrotation Yrotation Xrotation
					JOINT RightToeBase
					{
						OFFSET 35.990788 24.931499 -0.723049
						CHANNELS 3 Zrotation Yrotation Xrotation
						End Site
						{
							OFFSET 0.000000 0.000000 0.000000
						}
					}
				}
			}
		}
	}
	JOINT LowerBack
	{
		OFFSET 12.891642 15.041281 27.040415
		CHANNELS 3 Zrotation Yrotation Xrotation
		JOINT Spine
		{
			OFFSET 26.715063 31.929598 43.739033
			CHANNELS 3 Zrotation Yrotation Xrotation
			JOINT Spine1
			{
				OFFSET 42.911655 77.900696 36.320271
				CHANNELS 3 Zrotation Yrotation Xrotation
				JOINT Neck
				{
					OFFSET 40.816662 61.113541 27.121813
					CHANNELS 3 Zrotation Yrotation Xrotation
					JOINT Neck1
					{
						OFFSET -6.710614 -63.732517 -57.002834
						CHANNELS 3 Zrotation Yrotation Xrotation
						JOINT Head
						{
							OFFSET 13.958695 27.290005 33.575272
							CHANNELS 3 Zrotation Yrotation Xrotation
							End Site
							{
								OFFSET 0.000000 0.000000 0.000000
							}
						}
					}
				}
				JOINT LeftShoulder
				{
					OFFSET 38.076225 24.182892 24.367064
					CHANNELS 3 Zrotation Yrotation Xrotation
					JOINT LeftArm
					{
						OFFSET 28.166670 15.897768 5.040406
						CHANNELS 3 Zrotation Yrotation Xrotation
						JOINT LeftForeArm
						{
							OFFSET 25.444700 48.072590 58.799526
							CHANNELS 3 Zrotation Yrotation Xrotation
							JOINT LeftHand
							{
								OFFSET 75.375206 44.416782 61.115517
								CHANNELS 3 Zrotation Yrotation Xrotation
								JOINT LeftFingerBase
								{
									OFFSET 79.465195 78.671509 80.904716
									CHANNELS 3 Zrotation Yrotation Xrotation
									JOINT LeftHandIndex1
									{
										OFFSET 123.524231 95.875328 73.272781
										CHANNELS 3 Zrotation Yrotation Xrotation
										End Site
										{
											OFFSET 0.000000 0.000000 0.000000
										}
									}
								}
								JOINT LThumb
								{
									OFFSET 64.708717 57.147003 51.077709
									CHANNELS 3 Zrotation Yrotation Xrotation
									End Site
									{
										OFFSET 0.000000 0.000000 0.000000
									}
								}
							}
						}
					}
				}
				JOINT RightShoulder
				{
					OFFSET 44.262070 58.120049 73.529175
					CHANNELS 3 Zrotation Yrotation Xrotation
					JOINT RightArm
					{
						OFFSET 46.123745 33.688728 48.714790
						CHANNELS 3 Zrotation Yrotation Xrotation
						JOINT RightForeArm
						{
							OFFSET 96.783577 117.174477 90.322273
							CHANNELS 3 Zrotation Yrotation Xrotation
							JOINT RightHand
							{
								OFFSET 103.662445 87.276657 115.065025
								CHANNELS 3 Zrotation Yrotation Xrotation
								JOINT RightFingerBase
								{
									OFFSET 236.953857 115.993675 204.805878
									CHANNELS 3 Zrotation Yrotation Xrotation
									JOINT RightHandIndex1
									{
										OFFSET 14.499308 298.548981 143.238007
										CHANNELS 3 Zrotation Yrotation Xrotation
										End Site
										{
											OFFSET 0.000000 0.000000 0.000000
										}
									}
								}
								JOINT RThumb
								{
									OFFSET 424.169403 550.963928 1826.588745
									CHANNELS 3 Zrotation Yrotation Xrotation
									End Site
									{
										OFFSET 832.064758 606.445923 -166.591751
									}
								}
							}
						}
					}
				}
			}
		}
	}
}
MOTION
Frames: 9
Frame Time: 0.008333
-11.893104 18.119907 -86.800224 -19.635780 4.395939 -11.602777 -23.859642 -27.793514 -40.231174 -64.135773 -73.607300 -54.530445 -9.230232 4.947836 29.414774 -4.094538 -46.423927 -18.688150 0.543271 -13.880482 -85.684387 -19.077200 -8.604896 -13.187710 -56.545151 -42.237141 -96.537231 -11.255199 -34.696320 -29.277077 -24.600750 -62.543724 -187.783981 -8.940290 -29.499287 -151.251053 -52.011444 -30.144199 -64.197723 -38.009224 -0.492607 -66.097321 72.839272 -20.944527 -135.728271 -116.383110 -184.266571 -178.738342 0.534728 -131.274597 -75.042557 -61.713284 -44.337357 -63.061787 -54.372345 -36.285721 -11.636259 -179.843140 -44.667793 -515.850586 -164.267731 -217.019409 128.512878 -16.805733 -22.826143 -1097.890869 -144.282150 -723.074646 -324.826965 -7.125000 0.000000 0.000000 -1136.415161 -658.937012 -1223.564453 -162.951630 -116.217216 -26.873192 107.361191 -420.068909 -989.773499 -751.982727 192.824585 -293.373108 -35.966766 -133.324539 -1583.746460 -12893.031250 -508.204285 -12831.897461 7.125000 0.000000 0.000000 -50065.621094 -34553.488281 10748.856445
0.211954 18.108955 -69.454048 9.487409 34.802086 67.073868 74.934166 20.002398 31.996393 37.930679 3.713649 19.298717 9.513064 22.785072 42.933075 -8.166861 -23.263784 40.404259 9.267079 19.819826 65.133392 21.687096 12.614220 35.570118 123.396843 58.351524 37.470886 25.200096 8.171735 83.112160 -0.407812 71.837608 -20.065727 1.971044 37.292622 103.217804 17.156464 16.817696 23.110519 13.176865 101.552826 10.622511 114.095016 -39.607925 -109.830734 31.612261 -25.934444 111.327415 97.693092 40.067902 161.496445 -10.282918 0.351813 3.783639 3.021620 2.864932 1.028984 -40.493874 330.672607 216.764465 567.757568 7.816324 268.280975 -20.822260 9.435886 105.340157 743.604980 516.967957 584.125244 -7.125000 0.000000 0.000000 -555.808167 -145.859177 -908.147339 65.264809 69.736214 12.100870 493.400177 43.329861 1005.138672 -492.784241 528.304077 -69.658554 19.826927 15.182868 839.461792 -1898.615356 4632.795898 867.395386 7.125000 0.000000 0.000000 23346.683594 47783.281250 -23244.000000
22.841511 20.485523 116.832932 19.596235 4.324885 60.884014 63.447186 24.021170 25.526558 38.374779 49.433197 96.627853 48.100368 69.505341 210.474716 23.074408 115.257324 91.209511 13.816454 27.046600 84.596306 30.818239 10.866064 41.199791 172.424652 94.619308 156.601547 36.056519 42.736420 98.841888 16.985767 63.541492 166.681625 22.783693 116.683205 363.252350 112.879051 58.094769 128.460815 37.369263 154.470749 85.850761 188.263428 76.780678 25.476130 191.967636 137.817291 369.072510 123.413689 132.469131 249.822464 37.147793 44.286057 74.080803 75.708336 60.258743 31.098783 70.647980 449.149139 423.264191 720.468994 272.410889 942.140869 20.755556 77.794701 540.829956 507.592407 415.918793 598.474243 -7.125000 0.000000 0.000000 227.330170 624.287720 -122.312637 106.745506 141.896179 40.454376 1234.612915 701.215759 2770.749756 429.925323 899.268982 630.887085 92.252922 164.808777 3108.628174 13585.338867 7728.455078 7835.664062 7.125000 0.000000 0.000000 -6030.260254 -3645.145508 1323.115356
2.498400 18.333544 123.105492 0.765651 -11.151655 56.048817 43.775578 13.454543 7.600472 18.807993 17.714888 -12.618870 15.445953 26.915909 69.166023 11.242860 100.282791 74.069275 12.432389 37.044712 108.526611 23.046045 -3.581338 28.862347 153.633911 90.624725 119.035294 25.943272 49.339973 188.206360 47.804661 77.880249 239.792908 20.153276 63.792118 334.712555 141.083115 82.458717 159.067444 28.017508 109.718529 83.484688 198.951508 107.879341 34.228107 98.459221 53.491364 285.782349 81.086823 148.327133 246.270615 61.521366 62.057449 110.674469 106.085892 65.817886 31.676882 34.354149 384.076233 434.888641 473.714569 61.033306 564.828979 9.336537 78.809776 1362.376221 681.010559 1018.068298 861.379089 -7.125000 0.000000 0.000000 1051.340454 1108.415649 976.619141 174.773285 169.513275 10.849174 674.155640 105.228004 2082.668701 860.932861 1068.826538 1053.777344 91.334625 60.692825 -444.916382 3759.219727 2631.303955 4494.655762 7.125000 0.000000 0.000000 36808.414062 -15534.389648 -57661.433594
5.551096 19.314886 93.558334 2.781143 28.359247 77.726387 76.379845 19.112007 12.215508 36.600021 31.178568 18.856907 10.933447 18.843731 64.507828 14.907615 57.642315 50.697823 3.136435 22.415607 35.360100 16.975950 -5.095085 19.936329 107.679901 69.768448 58.823597 25.863403 28.947250 121.935806 6.326017 51.900688 122.042412 14.969878 45.991791 160.369415 51.587353 29.991678 48.691658 18.258261 7.764061 13.412466 77.363686 42.590672 138.617523 160.383499 137.586914 186.236633 54.998440 122.531525 117.564629 47.796566 32.284580 72.904114 60.569340 41.660912 13.334767 -2.317505 173.358948 386.301544 198.528366 200.750397 546.602112 16.705959 55.202141 934.907349 475.892395 733.570129 571.579407 -7.125000 0.000000 0.000000 942.820251 371.350067 896.029297 135.753769 45.808586 -4.218025 388.615021 225.810165 1317.831909 -231.129105 162.856262 95.381516 57.943565 148.313980 1720.321899 7073.199219 6719.582520 -1305.820557 7.125000 0.000000 0.000000 47150.652344 44271.695312 44221.277344
3.374307 20.366762 155.057587 -7.811148 -9.020653 4.863691 26.088284 4.350772 5.235179 1.868170 -10.168583 -31.578251 1.392767 15.938340 22.039547 2.306066 -2.802949 15.675393 -2.535556 8.448804 -11.126280 6.192270 -8.927720 18.760443 94.378883 54.604240 -0.373398 15.993735 14.566916 43.994171 -15.768956 -15.643322 -44.422764 0.071519 1.473726 19.512167 11.858622 8.764679 -8.901637 -3.984444 -69.181374 -7.181786 7.548203 -1.323940 24.256033 84.874817 193.418732 245.019684 81.055069 40.506905 -52.495140 -7.554728 -11.311080 -10.085283 -25.845100 -31.220560 -13.469918 -110.267189 -131.210388 -19.340261 -273.307373 -78.393707 101.599281 4.886756 6.780907 -134.016083 5.573064 -151.977905 25.726587 -7.125000 0.000000 0.000000 194.278519 -266.081329 -1.354324 -38.087856 -3.293102 -3.844460 62.611305 -297.078308 -940.815857 -662.971741 453.040070 -263.547058 -63.561077 -35.537655 -239.116623 -3833.907227 272.249054 -10861.625977 7.125000 0.000000 0.000000 -18898.173828 -19434.667969 -13996.916016
3.530471 19.559076 110.428368 12.687466 86.887299 80.598541 89.581024 31.424751 43.780087 68.004959 61.845543 75.203613 23.924305 43.947407 93.451332 26.965992 135.421677 192.459961 18.132761 67.688446 212.704239 70.535385 21.208162 60.042953 189.202179 172.356888 194.022964 56.183170 74.748970 312.653656 67.659813 231.231201 381.052368 36.166229 128.834167 366.471802 101.891785 77.558479 134.247421 64.271324 161.941025 190.351883 113.091370 117.582436 133.522888 217.411545 271.405060 308.190033 114.581490 152.600266 188.803101 121.687523 102.703835 186.525604 154.817627 98.166924 25.866060 98.874924 287.632355 907.889465 731.733521 626.978882 572.458191 43.904835 122.300385 2125.839600 1097.462646 1475.132812 1166.875122 -7.125000 0.000000 0.000000 2704.184082 1983.344727 2955.899902 332.111084 286.773376 102.022316 432.046234 874.881287 1920.277100 1331.106689 1046.464966 1317.694580 105.006325 205.961212 4615.617676 12211.257812 10766.832031 17680.111328 7.125000 0.000000 0.000000 42486.847656 7129.594238 -47508.386719
-7.316183 15.752126 -20.632473 -15.892810 -3.841684 -30.682037 -8.454268 -2.134341 3.575288 -39.388817 -36.259594 -101.406876 -19.499865 -2.892768 -17.280870 -1.346169 -24.569408 -43.797226 -4.832948 -38.525303 -117.913002 -58.307014 -35.777473 -33.837128 -122.334091 -66.518799 -174.500183 -48.453899 -55.951920 -105.407928 -48.869595 -287.002380 -302.688171 -33.730843 -94.542236 -451.345795 -98.063187 -92.416306 -90.066086 -68.122322 -121.748932 -175.093445 -213.172913 -142.020935 -594.807190 -425.838348 -293.961029 -225.566833 -53.426533 -130.534042 -145.415314 -98.433258 -59.922894 -118.586441 -105.078026 -82.059601 -23.934856 -249.921631 -298.017334 -839.032959 -773.990723 -598.383423 -670.610718 -38.715885 -111.298889 -1406.647827 -666.640930 -1099.087158 -769.644043 -7.125000 0.000000 0.000000 -1731.312256 -1734.380371 -1668.422485 -247.128952 -197.117249 -60.160229 -535.163330 -443.730774 -2220.830811 -1270.851074 -1349.281128 -1267.078247 -371.720825 -412.984589 -3965.364990 -21771.787109 -7073.742676 -21416.160156 7.125000 0.000000 0.000000 -49370.687500 -53613.976562 -15173.181641
1.658999 17.192307 35.992176 5.469277 11.343226 6.024563 0.390841 0.962755 8.488768 1.432123 33.891281 10.591244 18.048775 26.856804 78.257965 3.706155 21.646914 8.020885 2.290977 5.679085 30.656845 17.876053 11.701360 31.006735 108.843445 96.404335 99.360916 11.056575 -2.644623 101.751175 39.752563 26.711527 88.134621 6.481275 39.365429 102.125839 6.300381 18.401625 47.284485 21.907564 51.349834 30.344313 -57.676647 69.303856 74.829010 241.131821 209.042770 273.400208 97.575836 92.167961 187.251419 50.066723 58.336689 56.023407 82.428345 54.972088 16.780457 -34.235092 160.042068 189.351273 255.741302 15.369240 84.157761 4.421108 10.716489 403.684082 311.885406 522.067627 290.315521 -7.125000 0.000000 0.000000 1311.781616 883.560730 1442.890503 110.853981 99.956253 29.718069 96.728394 347.170349 357.787109 332.192566 -259.285095 141.909393 -67.751381 114.885208 2533.412109 5371.739746 2444.324707 583.132874 7.125000 0.000000 0.000000 -10617.090820 -25607.720703 43514.363281
